<?xml version="1.0" encoding="UTF-8" standalone="no"?>
<svg
   xmlns:dc="http://purl.org/dc/elements/1.1/"
   xmlns:cc="http://creativecommons.org/ns#"
   xmlns:rdf="http://www.w3.org/1999/02/22-rdf-syntax-ns#"
   xmlns:svg="http://www.w3.org/2000/svg"
   xmlns="http://www.w3.org/2000/svg"
   id="svg850"
   version="1.1"
   viewBox="0 0 79.375 32.733089"
   height="32.733089mm"
   width="79.375mm">
  <defs
     id="defs844" />
  <metadata
     id="metadata847">
    <rdf:RDF>
      <cc:Work
         rdf:about="">
        <dc:format>image/svg+xml</dc:format>
        <dc:type
           rdf:resource="http://purl.org/dc/dcmitype/StillImage" />
        <dc:title></dc:title>
      </cc:Work>
    </rdf:RDF>
  </metadata>
  <g
     transform="translate(-83.358052,-156.29313)"
     id="layer1">
    <path
       style="stroke-width:1.09108"
       d="m 150.74535,186.21843 c -0.25311,-0.76814 -0.33823,-1.38567 -0.33823,-3.07357 0,-1.6879 0.084,-2.30655 0.33823,-3.07468 0.60882,-1.85483 2.09817,-2.80734 4.17885,-2.80734 2.02939,0 3.48599,0.95251 4.12757,2.58911 0.0511,0.11794 0.033,0.18557 -0.0841,0.23464 l -2.24984,0.96888 c -0.11877,0.0503 -0.1864,0.0165 -0.23795,-0.10021 -0.32082,-0.66776 -0.72664,-1.06929 -1.50567,-1.06929 -0.72664,0 -1.18381,0.35134 -1.38785,0.98636 -0.11794,0.35011 -0.16907,0.70154 -0.16907,2.27269 0,1.57116 0.0511,1.92032 0.16907,2.27166 0.20289,0.63498 0.66009,0.98633 1.38785,0.98633 0.77903,0 1.18381,-0.40166 1.50567,-1.06926 0.0511,-0.11794 0.12001,-0.15051 0.23795,-0.1002 l 2.24984,0.96888 c 0.11876,0.0503 0.13526,0.1167 0.0841,0.23464 -0.64377,1.63664 -2.09706,2.58915 -4.12757,2.58915 -2.08068,0 -3.57003,-0.95251 -4.17885,-2.80734 z m -5.09861,2.43966 v -11.02757 c 0,-0.10021 0.0676,-0.16784 0.16911,-0.16784 h 2.64042 c 0.10037,0 0.16804,0.0676 0.16804,0.16784 v 11.02645 c 0,0.10021 -0.0676,0.16825 -0.16912,0.16825 h -2.64041 c -0.10148,0 -0.16804,-0.0656 -0.16804,-0.16701 z m -9.56768,0 v -11.02757 c 0,-0.10021 0.0676,-0.16784 0.16911,-0.16784 h 2.64042 c 0.10148,0 0.16911,0.0676 0.16911,0.16784 v 8.48753 c 0,0.0664 0.0326,0.10021 0.10149,0.10021 h 4.87276 c 0.10149,0 0.16912,0.0664 0.16912,0.16701 v 2.27162 c 0,0.10021 -0.0676,0.16825 -0.16912,0.16825 h -7.78376 c -0.10149,0 -0.16912,-0.0656 -0.16912,-0.16701 z m -7.60265,-2.15599 c 0,0.0676 0.0326,0.10021 0.10148,0.10021 h 1.35295 c 0.93069,0 1.40421,-0.45061 1.40421,-1.28637 0,-0.78558 -0.47352,-1.27004 -1.40421,-1.27004 h -1.35295 c -0.0687,0 -0.10148,0.033 -0.10148,0.10021 v 2.35673 z m 0.10148,-4.47779 h 1.20019 c 0.89796,0 1.37149,-0.38516 1.37149,-1.16963 0,-0.80194 -0.45716,-1.16966 -1.37039,-1.16966 h -1.20129 c -0.0687,0 -0.10148,0.033 -0.10148,0.10021 v 2.13854 c 0,0.0676 0.0326,0.10021 0.10148,0.10021 z m -3.08013,6.63378 v -11.02757 c 0,-0.10021 0.0676,-0.16784 0.16912,-0.16784 h 4.68728 c 2.57167,0 3.7555,1.21981 3.7555,3.02445 0,1.16963 -0.54227,1.98906 -1.40423,2.43966 v 0.033 c 0.84668,0.31877 1.60716,1.27 1.60716,2.59023 0,2.22254 -1.59079,3.27542 -4.0108,3.27542 h -4.636 c -0.10038,0 -0.16805,-0.0656 -0.16801,-0.16701 z m -6.58903,0.36784 c -2.79098,0 -4.58472,-1.57116 -4.58472,-4.59347 v -6.80066 c 0,-0.10021 0.0676,-0.16825 0.16912,-0.16825 h 2.64041 c 0.10037,0 0.16805,0.0676 0.16805,0.16825 v 6.98289 c 0,1.13693 0.64373,1.78939 1.60716,1.78939 0.99833,0 1.59079,-0.65246 1.59079,-1.78939 v -6.98289 c 0,-0.10021 0.0687,-0.16825 0.17019,-0.16825 h 2.63932 c 0.10148,0 0.16911,0.0676 0.16911,0.16825 v 6.79959 c 0,3.02557 -1.82755,4.59454 -4.56943,4.59454 z m -10.49619,-6.48211 c 0.93069,0 1.4555,-0.51827 1.4555,-1.30385 0,-0.78558 -0.52481,-1.28637 -1.4555,-1.28637 h -1.52206 c -0.0687,0 -0.10148,0.033 -0.10148,0.10021 v 2.38947 c 0,0.0664 0.0326,0.10021 0.10148,0.10021 z m -1.79374,6.28244 h -2.63932 c -0.10037,0 -0.16804,-0.0676 -0.16804,-0.16784 v -11.02757 c 0,-0.10021 0.0676,-0.16784 0.16911,-0.16784 h 4.60218 c 2.80844,0 4.26394,1.57115 4.26394,3.77622 0,2.17124 -1.47296,3.79258 -4.26503,3.79258 h -1.69116 c -0.0687,0 -0.10148,0.033 -0.10148,0.10021 v 3.52528 c 0,0.10145 -0.0676,0.16825 -0.16912,0.16825 z M 94.193584,188.65924 V 177.6306 c 0,-0.10021 0.06763,-0.16784 0.169115,-0.16784 h 7.529541 c 0.10149,0 0.16912,0.0676 0.16912,0.16784 v 2.15487 c 0,0.10062 -0.0676,0.16702 -0.16912,0.16702 h -4.618536 c -0.06874,0 -0.101486,0.033 -0.101486,0.1002 v 1.7206 c 0,0.0676 0.03258,0.10021 0.101486,0.10021 h 3.789316 c 0.10149,0 0.17019,0.0676 0.17019,0.16784 v 2.10469 c 0,0.0994 -0.0687,0.16701 -0.17019,0.16701 h -3.789316 c -0.06874,0 -0.101486,0.033 -0.101486,0.10021 v 1.82208 c 0,0.0656 0.03258,0.0994 0.101486,0.0994 h 4.618536 c 0.10149,0 0.16912,0.0676 0.16912,0.16701 v 2.15487 c 0,0.10021 -0.0676,0.16825 -0.16912,0.16825 h -7.529537 c -0.101485,0 -0.169115,-0.0656 -0.169115,-0.16701 z m -6.165692,-6.29988 c 0.845587,0 1.352938,-0.4692 1.352938,-1.20348 0,-0.73539 -0.507351,-1.20348 -1.352938,-1.20348 H 86.4371 c -0.06763,0 -0.101486,0.033 -0.101486,0.10021 v 2.20399 c 0,0.0676 0.03258,0.10144 0.101486,0.10144 h 1.590792 z m 4.433058,6.46574 h -2.927367 c -0.152745,0 -0.202931,-0.0503 -0.254231,-0.16825 L 87.5369,184.78133 h -1.099809 c -0.06763,0 -0.101485,0.033 -0.101485,0.10021 v 3.77515 c 0,0.1002 -0.06763,0.16825 -0.169116,0.16825 h -2.639322 c -0.101486,0 -0.169116,-0.0676 -0.169116,-0.16825 v -11.02646 c 0,-0.10021 0.06763,-0.16784 0.169116,-0.16784 h 4.687279 c 2.640411,0 4.146102,1.52093 4.146102,3.65947 0,1.4206 -0.67756,2.57278 -1.896294,3.17506 l 2.115604,4.32719 c 0.04911,0.10021 -0.0011,0.20083 -0.11893,0.20083 z m 34.7138,-13.80435 v -11.02757 c 0,-0.10021 0.0676,-0.16784 0.16912,-0.16784 h 7.52954 c 0.10148,0 0.16911,0.0676 0.16911,0.16784 v 2.15491 c 0,0.10021 -0.0676,0.16702 -0.16911,0.16702 h -4.61854 c -0.0688,0 -0.10149,0.033 -0.10149,0.1002 v 1.72065 c 0,0.0676 0.0326,0.1002 0.10149,0.1002 h 3.78932 c 0.10148,0 0.17023,0.0676 0.17023,0.16825 v 2.10576 c 0,0.0994 -0.0687,0.16702 -0.17023,0.16702 h -3.78932 c -0.0688,0 -0.10149,0.033 -0.10149,0.1002 v 1.82213 c 0,0.0656 0.0326,0.0981 0.10149,0.0981 h 4.61854 c 0.10148,0 0.16911,0.0689 0.16911,0.16825 v 2.15487 c 0,0.10021 -0.0676,0.16825 -0.16911,0.16825 h -7.52954 c -0.10149,-10e-4 -0.16912,-0.0676 -0.16912,-0.16825 z m -7.89178,-2.53896 c 0,0.0664 0.0338,0.0994 0.10149,0.0994 h 0.89687 c 1.04961,0 1.62461,-0.28371 1.8952,-1.08562 0.10149,-0.33485 0.16912,-0.71795 0.16912,-1.98795 0,-1.27003 -0.0676,-1.65515 -0.16912,-1.98905 -0.2706,-0.80303 -0.84559,-1.08563 -1.8952,-1.08563 h -0.89687 c -0.0676,0 -0.10149,0.033 -0.10149,0.0994 z m -2.97756,2.53896 v -11.02757 c 0,-0.10021 0.0687,-0.16784 0.17019,-0.16784 h 4.44942 c 2.02941,0 3.51874,0.83576 4.09483,2.59022 0.23678,0.73539 0.33823,1.37041 0.33823,3.09101 0,1.7032 -0.10149,2.35674 -0.33823,3.08994 -0.57609,1.75446 -2.06542,2.59022 -4.09483,2.59022 h -4.44942 c -0.10149,0 -0.17019,-0.0656 -0.17019,-0.16577 z m -7.93979,-4.19412 h 2.23235 l -1.06598,-3.54273 h -0.0513 z m -4.41669,4.19412 3.9759,-11.02646 c 0.0326,-0.10021 0.10148,-0.16825 0.22041,-0.16825 h 2.75825 c 0.11893,0 0.18656,0.0676 0.22042,0.16825 l 3.89079,11.02646 c 0.0338,0.10021 -0.0165,0.16784 -0.11786,0.16784 h -2.79316 c -0.11782,0 -0.18549,-0.0676 -0.21931,-0.16784 l -0.54117,-1.75446 h -3.74132 l -0.54117,1.75446 c -0.0338,0.10021 -0.10149,0.16784 -0.22042,0.16784 h -2.77461 c -0.10149,-0.001 -0.15275,-0.0676 -0.11786,-0.16784 z m -5.404117,-6.29881 c 0.845587,0 1.352938,-0.46916 1.352938,-1.20348 0,-0.73539 -0.507351,-1.20344 -1.352938,-1.20344 h -1.591885 c -0.06874,0 -0.101486,0.033 -0.101486,0.10021 v 2.20399 c 0,0.0676 0.03258,0.10144 0.101486,0.10144 h 1.590793 z m 4.433057,6.46574 h -2.92737 c -0.15274,0 -0.202927,-0.0503 -0.253113,-0.16825 l -1.743545,-3.87552 h -1.09872 c -0.06874,0 -0.101486,0.033 -0.101486,0.10021 v 3.7751 c 0,0.10021 -0.06874,0.16825 -0.170229,0.16825 h -2.640415 c -0.101486,0 -0.169116,-0.0676 -0.169116,-0.16825 v -11.02645 c 0,-0.10021 0.06763,-0.16784 0.169116,-0.16784 h 4.68728 c 2.640418,0 4.145008,1.52097 4.145008,3.66058 0,1.42056 -0.67647,2.57274 -1.8952,3.17502 l 2.1156,4.32723 c 0.0502,0.0982 0,0.19959 -0.12,0.19959 z m -13.695235,0 H 86.64222 c -0.100372,0 -0.169116,-0.0676 -0.169116,-0.16825 v -8.4875 c 0,-0.0664 -0.03258,-0.0994 -0.101486,-0.0994 h -2.826974 c -0.100372,0 -0.168043,-0.0676 -0.168043,-0.16784 v -2.27166 c 0,-0.1002 0.06763,-0.16783 0.169115,-0.16783 h 8.832293 c 0.101486,0 0.169115,0.0676 0.169115,0.16783 v 2.27166 c 0,0.10021 -0.06763,0.16784 -0.169115,0.16784 h -2.825898 c -0.06763,0 -0.101486,0.033 -0.101486,0.0994 v 8.48861 c 0,0.10021 -0.06763,0.16702 -0.169116,0.16702 z m 73.021625,-12.2452 a 0.55426863,0.55426863 0 0 0 0.42879,-0.5379 h -0.002 v -5.55797 a 0.55863297,0.55863297 0 0 0 -0.68958,-0.53791 l -8.01396,1.89739 a 1.3856716,1.3856716 0 0 1 -0.74521,-0.0289 l -3.61585,-1.17292 a 1.3823983,1.3823983 0 0 0 -0.74739,-0.0289 l -8.21365,1.95739 a 0.55317756,0.55317756 0 0 0 -0.42879,0.53679 v 5.5569 a 0.55972404,0.55972404 0 0 0 0.69175,0.53791 l 7.95069,-1.89413 c 0.2466,-0.059 0.50626,-0.0491 0.74739,0.0289 l 3.61585,1.174 c 0.24,0.0763 0.49861,0.0874 0.74521,0.0289 l 8.27582,-1.95851 z m 0,8.2922 a 0.55317756,0.55317756 0 0 0 0.42879,-0.53791 h -0.002 v -5.55685 a 0.55863297,0.55863297 0 0 0 -0.68958,-0.53791 l -8.01396,1.8952 a 1.3856716,1.3856716 0 0 1 -0.74521,-0.0289 l -3.61585,-1.17359 a 1.3823983,1.3823983 0 0 0 -0.74739,-0.0289 l -8.21255,1.95738 a 0.55317756,0.55317756 0 0 0 -0.4288,0.53791 v 5.55578 a 0.55972404,0.55972404 0 0 0 0.69174,0.53791 l 7.95071,-1.89409 c 0.2466,-0.059 0.50626,-0.0491 0.74738,0.0289 l 3.61583,1.17399 c 0.24001,0.0775 0.49865,0.0874 0.74521,0.0289 z"
       id="path2" />
  </g>
</svg>
